<?xml version="1.0" standalone="no"?>
<!DOCTYPE svg PUBLIC "-//W3C//DTD SVG 20010904//EN"
 "http://www.w3.org/TR/2001/REC-SVG-20010904/DTD/svg10.dtd">
<svg version="1.0" xmlns="http://www.w3.org/2000/svg"
 width="700.000000pt" height="700.000000pt" viewBox="0 0 700.000000 700.000000"
 preserveAspectRatio="xMidYMid meet">
<metadata>
Created by potrace 1.11, written by Peter Selinger 2001-2013
</metadata>
<g transform="translate(0.000000,700.000000) scale(0.100000,-0.100000)"
fill="#000000" stroke="none">
<path d="M1692 5947 l-22 -24 304 -333 c168 -184 304 -335 303 -335 -1 0 -38
-35 -83 -78 l-80 -77 -280 306 c-153 168 -287 315 -297 326 l-18 22 -24 -25
-24 -24 296 -324 297 -324 -16 -28 -16 -28 948 -993 948 -993 -24 -25 -24 -25
-23 25 c-13 14 -439 461 -947 993 l-923 969 -33 -39 c-21 -24 -36 -34 -42 -28
-5 6 -129 143 -277 305 -147 162 -278 306 -291 319 l-23 25 -25 -23 -24 -23
301 -330 c166 -181 303 -333 305 -338 1 -4 -25 -51 -60 -104 -48 -76 -64 -94
-73 -84 -44 60 -620 678 -628 675 -6 -2 -12 -8 -14 -13 -2 -6 559 -600 1246
-1320 1164 -1219 1248 -1310 1234 -1326 -9 -10 -22 -18 -29 -18 -7 0 -424 430
-925 956 -727 761 -914 952 -921 939 -23 -39 -108 -248 -133 -323 l-28 -84 75
-76 c41 -43 407 -426 813 -852 406 -426 759 -796 784 -823 l45 -47 -22 -22
-22 -23 -79 80 c-43 44 -422 440 -841 880 -420 440 -766 801 -770 803 -7 3
-39 -137 -61 -271 -6 -38 -12 -108 -13 -156 l-1 -88 700 -733 c385 -404 718
-753 739 -777 l39 -44 -22 -22 -21 -22 -69 70 c-38 39 -358 374 -711 745 -354
371 -650 682 -658 690 -13 13 -14 -2 -8 -131 36 -806 425 -1520 1059 -1940
284 -188 578 -300 922 -350 116 -17 434 -17 550 0 440 64 808 232 1154 525
l84 71 746 321 c818 352 792 338 759 406 -9 19 -184 311 -389 648 -343 566
-374 620 -382 675 -40 277 -74 422 -144 613 -189 515 -552 953 -1016 1226
-746 439 -1687 384 -2384 -140 l-72 -54 -158 173 c-87 94 -225 245 -307 335
-82 89 -149 162 -151 162 -1 0 -11 -10 -23 -23z"/>
</g>
</svg>
