<svg width="361" height="90" fill="none" xmlns="http://www.w3.org/2000/svg"><g clip-path="url(#clip0)"><path stroke="#713E5A" d="M138.586-.356932L231.35 90.6431M138.586-.356932L231.35 90.6431"/><path transform="matrix(.71374 .7004 -.70596 .70825 128.157 0)" stroke="#713E5A" d="M0-.5h128.497M0-.5h128.497"/><path stroke="#713E5A" d="M118.428-.357228L211.35 90.6428M118.428-.357228L211.35 90.6428M108.35-.357375l93 90.999975M108.35-.357375l93 90.999975"/><ellipse rx="6.0344" ry="3.75674" transform="matrix(.9208 .3976 -.22327 .97098 151.574 16.1924)" fill="#18435A"/><path transform="matrix(.75117 -.6601 .66591 .74603 154.931 21.1287)" stroke="#18435A" stroke-width="1.5" stroke-linecap="round" stroke-linejoin="round" d="M.75-.75h20.932"/><path d="M163.487 56.2935c-.153.6642-.729 1.199-1.753 1.3989-1.012.1977-2.358.0353-3.784-.5805-1.426-.6158-2.597-1.5401-3.344-2.4973-.755-.9682-1.003-1.859-.851-2.5233.153-.6642.729-1.199 1.753-1.3989 1.012-.1977 2.358-.0353 3.784.5805 1.427.6158 2.597 1.5401 3.344 2.4973.755.9682 1.004 1.859.851 2.5233z" stroke="#18435A" stroke-width="1.5"/><path transform="matrix(.75117 -.6601 .66591 .74603 161.978 59.1287)" stroke="#18435A" stroke-width="1.5" stroke-linecap="round" stroke-linejoin="round" d="M.75-.75h20.932"/><ellipse rx="6.0344" ry="3.75674" transform="matrix(.9208 .3976 -.22327 .97098 215.068 88.1924)" fill="#18435A"/><path transform="matrix(.75117 -.6601 .66591 .74603 218.425 93.1287)" stroke="#18435A" stroke-width="1.5" stroke-linecap="round" stroke-linejoin="round" d="M.75-.75h20.932"/><ellipse rx="6.0344" ry="3.75674" transform="matrix(.9208 .3976 -.22327 .97098 194.911 73.1924)" fill="#18435A"/><path transform="matrix(.75117 -.6601 .66591 .74603 198.268 78.1287)" stroke="#18435A" stroke-width="1.5" stroke-linecap="round" stroke-linejoin="round" d="M.75-.75h20.932"/><path d="M214.328 63.5L233.981 78" stroke="#18435A" stroke-width="2" stroke-linecap="round"/><path d="M47.8173 37.28c1.32-1.92 2.92-3.44 4.8-4.56 1.88-1.12 3.9-1.68 6.06-1.68v12.54h-3.3c-2.56 0-4.46.5-5.7 1.5-1.24 1-1.86 2.74-1.86 5.22V65h-11.76V31.34h11.76v5.94zm30.7359 28.14c-3.36 0-6.38-.7-9.06-2.1-2.64-1.4-4.72-3.4-6.24-6-1.52-2.6-2.28-5.66-2.28-9.18 0-3.48.76-6.52 2.28-9.12 1.56-2.6 3.66-4.6 6.3-6 2.68-1.4 5.7-2.1 9.06-2.1 3.36 0 6.36.7 9 2.1 2.68 1.4 4.78 3.4 6.3 6 1.56 2.6 2.34 5.64 2.34 9.12 0 3.48-.78 6.54-2.34 9.18-1.52 2.6-3.62 4.6-6.3 6-2.68 1.4-5.7 2.1-9.06 2.1zm0-10.2c1.64 0 3-.6 4.08-1.8 1.12-1.24 1.68-3 1.68-5.28 0-2.28-.56-4.02-1.68-5.22-1.08-1.2-2.42-1.8-4.02-1.8-1.6 0-2.94.6-4.02 1.8-1.08 1.2-1.62 2.94-1.62 5.22 0 2.32.52 4.08 1.56 5.28 1.04 1.2 2.38 1.8 4.02 1.8zm36.8248 10.2c-3.04 0-5.76-.5-8.16-1.5-2.36-1.04-4.24-2.44-5.64-4.2-1.36-1.8-2.1203-3.82-2.2803-6.06h11.4003c.16 1.08.66 1.92 1.5 2.52.84.6 1.88.9 3.12.9.96 0 1.72-.2 2.28-.6.56-.4.84-.92.84-1.56 0-.84-.46-1.46-1.38-1.86-.92-.4-2.44-.84-4.56-1.32-2.4-.48-4.4-1.02-6-1.62-1.6-.6-3-1.58-4.2-2.94-1.16-1.36-1.74-3.2-1.74-5.52 0-2 .54-3.8 1.62-5.4 1.08-1.64 2.66-2.94 4.74-3.9 2.12-.96 4.66-1.44 7.62-1.44 4.4 0 7.86 1.08 10.38 3.24 2.52 2.16 3.98 5 4.38 8.52h-10.62c-.2-1.08-.68-1.9-1.44-2.46-.72-.6-1.7-.9-2.94-.9-.96 0-1.7.18-2.22.54-.48.36-.72.86-.72 1.5 0 .8.46 1.42 1.38 1.86.92.4 2.4.82 4.44 1.26 2.44.52 4.46 1.1 6.06 1.74 1.64.64 3.06 1.68 4.26 3.12 1.24 1.4 1.86 3.32 1.86 5.76 0 1.96-.58 3.72-1.74 5.28-1.12 1.56-2.74 2.8-4.86 3.72-2.08.88-4.54 1.32-7.38 1.32zm51.921-17.64c0 .92-.06 1.84-.18 2.76h-22.26c.12 1.84.62 3.22 1.5 4.14.92.88 2.08 1.32 3.48 1.32 1.96 0 3.36-.88 4.2-2.64h12.54c-.52 2.32-1.54 4.4-3.06 6.24-1.48 1.8-3.36 3.22-5.64 4.26-2.28 1.04-4.8 1.56-7.56 1.56-3.32 0-6.28-.7-8.88-2.1-2.56-1.4-4.58-3.4-6.06-6-1.44-2.6-2.16-5.66-2.16-9.18 0-3.52.72-6.56 2.16-9.12 1.44-2.6 3.44-4.6 6-6 2.6-1.4 5.58-2.1 8.94-2.1 3.32 0 6.26.68 8.82 2.04 2.56 1.36 4.56 3.32 6 5.88 1.44 2.52 2.16 5.5 2.16 8.94zm-12-2.94c0-1.44-.48-2.56-1.44-3.36-.96-.84-2.16-1.26-3.6-1.26s-2.62.4-3.54 1.2c-.92.76-1.52 1.9-1.8 3.42h10.38z" fill="#713E5A"/><path d="M190.292 41.12h-5.28V65h-11.82V41.12h-3.66v-9.78h3.66v-.3c0-4.32 1.26-7.62 3.78-9.9 2.56-2.32 6.22-3.48 10.98-3.48.96 0 1.7.02 2.22.06v10.02c-.32-.04-.76-.06-1.32-.06-1.28 0-2.22.3-2.82.9-.6.56-.94 1.48-1.02 2.76h5.28v9.78zm10.143-12.9c-2.08 0-3.76-.56-5.04-1.68-1.24-1.16-1.86-2.6-1.86-4.32 0-1.76.62-3.22 1.86-4.38 1.28-1.16 2.96-1.74 5.04-1.74 2.04 0 3.68.58 4.92 1.74 1.28 1.16 1.92 2.62 1.92 4.38 0 1.72-.64 3.16-1.92 4.32-1.24 1.12-2.88 1.68-4.92 1.68zm5.82 3.12V65h-11.76V31.34h11.76zm28.717-.3c3.88 0 6.96 1.3 9.24 3.9 2.28 2.56 3.42 6.04 3.42 10.44V65h-11.76V46.94c0-1.92-.5-3.42-1.5-4.5-1-1.12-2.34-1.68-4.02-1.68-1.76 0-3.14.56-4.14 1.68-1 1.08-1.5 2.58-1.5 4.5V65h-11.76V31.34h11.76v4.8c1.04-1.52 2.44-2.74 4.2-3.66 1.76-.96 3.78-1.44 6.06-1.44zm17.193 17.1c0-3.48.72-6.52 2.16-9.12 1.44-2.6 3.44-4.6 6-6 2.6-1.4 5.56-2.1 8.88-2.1 4.28 0 7.88 1.18 10.8 3.54 2.92 2.32 4.8 5.58 5.64 9.78h-12.48c-.72-2.2-2.12-3.3-4.2-3.3-1.48 0-2.66.62-3.54 1.86-.84 1.2-1.26 2.98-1.26 5.34s.42 4.16 1.26 5.4c.88 1.24 2.06 1.86 3.54 1.86 2.12 0 3.52-1.1 4.2-3.3h12.48c-.84 4.16-2.72 7.42-5.64 9.78-2.92 2.36-6.52 3.54-10.8 3.54-3.32 0-6.28-.7-8.88-2.1-2.56-1.4-4.56-3.4-6-6-1.44-2.6-2.16-5.66-2.16-9.18zm60.505-17.1c3.84 0 6.88 1.3 9.12 3.9 2.28 2.56 3.42 6.04 3.42 10.44V65h-11.76V46.94c0-1.92-.5-3.42-1.5-4.5-1-1.12-2.34-1.68-4.02-1.68-1.76 0-3.14.56-4.14 1.68-1 1.08-1.5 2.58-1.5 4.5V65h-11.76V20.6h11.76v15.54c1.04-1.52 2.44-2.74 4.2-3.66 1.8-.96 3.86-1.44 6.18-1.44z" fill="#18435A"/><path d="M103.217 55.8696c.184.2779.094.6433-.186.7539l-16.3759 6.4639c-.3711.1465-.7744-.2448-.6734-.6533l5.6179-22.7101c.1011-.4085.6161-.4687.8599-.1006l10.7575 16.2462z" fill="url(#paint0_linear)"/><path d="M103.218 56.2663l-6.5128-2.7004" stroke="#18435A" stroke-width=".25"/><path transform="matrix(.70588 .70833 -.70588 .70833 61.8815 29)" stroke="#713E5A" stroke-width=".5" d="M0-.25h18.5845"/><path transform="matrix(.70588 .70833 -.70588 .70833 60.2543 30.6328)" stroke="#713E5A" stroke-width=".5" d="M0-.25h18.5845"/><path transform="matrix(.70588 .70833 -.70588 .70833 58.6272 32.2656)" stroke="#713E5A" stroke-width=".5" d="M0-.25h18.5845"/><path transform="matrix(.70588 .70833 -.70588 .70833 57 33.8983)" stroke="#713E5A" stroke-width=".5" d="M0-.25h18.5845"/><ellipse cx="78.5" cy="48" rx="18.5" ry="18" fill="url(#paint1_linear)"/><path transform="matrix(.72139 .69253 -.72139 .69253 58.1358 30.2)" stroke="#DBBDCD" stroke-width=".5" d="M0-.25h30.3086"/><path transform="matrix(.72139 .69253 -.72139 .69253 55.4238 32.8034)" stroke="#DBBDCD" stroke-width=".5" d="M0-.25h30.3086"/><path transform="matrix(.72139 .69253 -.72139 .69253 52.7119 35.407)" stroke="#DBBDCD" stroke-width=".5" d="M0-.25h30.3086"/><path transform="matrix(.72139 .69253 -.72139 .69253 50 38.0103)" stroke="#DBBDCD" stroke-width=".5" d="M0-.25h30.3086"/><circle cx="87.5" cy="43.5" r="3.5" fill="url(#paint2_linear)"/></g><defs><linearGradient id="paint0_linear" x1="104.882" y1="47.5883" x2="89.8648" y2="65.2378" gradientUnits="userSpaceOnUse"><stop stop-color="#0FA3B1"/><stop offset="1" stop-color="#0D8B96"/></linearGradient><linearGradient id="paint1_linear" x1="94" y1="33.5" x2="59.5" y2="54" gradientUnits="userSpaceOnUse"><stop stop-color="#713E5A"/><stop offset="1" stop-color="#6D3C57"/></linearGradient><linearGradient id="paint2_linear" x1="92" y1="39" x2="84" y2="47" gradientUnits="userSpaceOnUse"><stop stop-color="#18435A"/><stop offset="1" stop-color="#133648"/></linearGradient><clipPath id="clip0"><path fill="#fff" d="M0 0h361v90H0z"/></clipPath></defs></svg>